<?xml version="1.0" standalone="no"?>
<!DOCTYPE svg PUBLIC "-//W3C//DTD SVG 20010904//EN"
 "http://www.w3.org/TR/2001/REC-SVG-20010904/DTD/svg10.dtd">
<svg version="1.0" xmlns="http://www.w3.org/2000/svg"
 width="200" height="200" viewBox="0 0 200 200"
 preserveAspectRatio="xMidYMid meet">

<g transform="translate(0.000000,200.000000) scale(0.100000,-0.100000)"
fill="#000000" stroke="none">
<path d="M748 1923 c7 -3 16 -2 19 1 4 3 -2 6 -13 5 -11 0 -14 -3 -6 -6z"/>
<path d="M708 1913 c7 -3 16 -2 19 1 4 3 -2 6 -13 5 -11 0 -14 -3 -6 -6z"/>
<path d="M920 1869 c-36 -6 -105 -23 -154 -40 -245 -82 -406 -260 -406 -449 0
-39 16 -110 24 -110 2 0 17 5 34 11 41 14 69 -1 80 -44 5 -21 23 -42 51 -62
87 -60 121 -100 121 -138 0 -20 -5 -39 -10 -42 -19 -12 1 -25 36 -25 50 0 150
-36 211 -77 68 -45 113 -100 155 -189 30 -62 33 -78 33 -159 0 -80 -3 -97 -32
-157 -63 -135 -194 -227 -323 -229 -57 -1 -61 -2 -35 -10 65 -21 230 7 323 55
62 32 150 125 184 194 31 63 33 73 33 177 0 100 -3 115 -28 166 -46 94 -119
151 -266 206 -36 13 -75 33 -86 43 -11 10 -33 25 -50 34 -16 8 -52 37 -80 62
-33 31 -40 40 -20 28 73 -44 115 -64 195 -91 108 -36 254 -40 335 -9 126 48
246 156 358 322 116 173 186 342 201 484 5 46 4 51 -5 30 -53 -117 -69 -141
-124 -196 -99 -100 -226 -151 -340 -138 l-60 8 80 11 80 11 -105 51 c-129 63
-204 83 -340 90 -172 9 -310 -37 -411 -138 -53 -52 -73 -86 -94 -161 l-15 -53
4 64 c11 169 165 322 391 389 100 30 297 34 412 8 95 -21 214 -67 288 -111 52
-32 60 -34 73 -21 14 13 13 17 -9 35 -46 39 -244 132 -324 152 -94 24 -287 33
-385 18z m87 -479 c108 -66 86 -237 -40 -301 -66 -34 -144 -24 -235 30 -40 24
-70 46 -68 49 3 3 43 -14 88 -37 97 -48 143 -52 209 -18 49 25 89 89 89 141 0
44 -38 115 -74 137 -17 10 -24 19 -16 19 8 0 29 -9 47 -20z m-76 -35 c35 -19
69 -70 69 -105 0 -14 -9 -39 -20 -57 -53 -87 -167 -96 -229 -17 -28 36 -28
103 -1 135 l20 24 -7 -30 c-14 -56 -7 -87 26 -117 44 -40 101 -39 142 1 21 21
29 39 29 64 0 40 -8 51 -27 36 -18 -15 -45 7 -41 34 2 11 -2 22 -7 24 -6 2
-11 -9 -10 -24 0 -25 -3 -28 -35 -28 -28 0 -36 4 -38 22 -7 45 70 68 129 38z"/>
<path d="M379 1723 c-13 -16 -12 -17 4 -4 9 7 17 15 17 17 0 8 -8 3 -21 -13z"/>
<path d="M1075 1729 c28 -4 66 -11 85 -14 33 -6 34 -6 15 9 -14 10 -41 15 -85
15 l-65 -1 50 -9z"/>
<path d="M1218 1723 c6 -2 18 -2 25 0 6 3 1 5 -13 5 -14 0 -19 -2 -12 -5z"/>
<path d="M294 1678 l-19 -23 23 19 c21 18 27 26 19 26 -2 0 -12 -10 -23 -22z"/>
<path d="M329 1683 c-13 -16 -12 -17 4 -4 9 7 17 15 17 17 0 8 -8 3 -21 -13z"/>
<path d="M1530 1630 c13 -9 13 -11 0 -21 -13 -9 -12 -10 3 -5 10 3 21 6 24 6
3 0 0 7 -7 15 -7 8 -18 15 -24 15 -6 0 -4 -5 4 -10z"/>
<path d="M1811 1558 c43 -57 57 -70 34 -33 -31 51 -50 74 -58 75 -5 0 6 -19
24 -42z"/>
<path d="M181 1537 c-13 -21 -12 -21 5 -5 10 10 16 20 13 22 -3 3 -11 -5 -18
-17z"/>
<path d="M1751 1508 c0 -7 19 -29 42 -48 l41 -35 -33 48 c-31 46 -52 60 -50
35z"/>
<path d="M1690 1399 l-22 -42 30 -24 c36 -28 92 -102 133 -176 28 -50 29 -50
23 -17 -11 69 -46 166 -80 221 -51 85 -59 88 -84 38z"/>
<path d="M1596 1256 c-21 -30 -75 -90 -120 -134 -131 -126 -262 -180 -411
-170 l-70 5 51 -17 c27 -10 66 -26 85 -36 18 -10 41 -17 50 -16 24 4 131 -71
167 -116 63 -80 87 -146 90 -259 4 -100 3 -104 -32 -176 -22 -47 -56 -95 -92
-132 -43 -43 -51 -55 -33 -50 102 31 232 144 284 245 91 178 -7 439 -197 530
-59 28 -64 40 -19 40 48 0 124 -45 180 -106 30 -32 49 -48 42 -36 -7 13 -10
26 -8 28 9 9 78 -58 98 -95 11 -20 18 -27 15 -16 -17 70 -30 114 -43 140 l-14
30 28 -30 c15 -17 35 -41 45 -55 16 -25 16 -25 11 20 -13 111 -59 242 -110
308 -22 30 -24 37 -13 58 13 23 14 23 32 7 32 -29 96 -169 114 -249 21 -98 15
-250 -15 -344 -11 -36 -21 -67 -21 -70 0 -3 16 20 35 50 101 159 110 393 24
558 -31 58 -95 142 -108 142 -4 0 -25 -24 -45 -54z"/>
<path d="M252 1194 c-91 -45 -172 -173 -180 -284 l-3 -55 16 30 c27 48 43 62
105 85 118 44 223 24 314 -60 129 -119 87 -289 -101 -410 -26 -17 -39 -29 -28
-26 11 3 40 10 65 17 25 7 48 12 53 11 4 -1 6 1 5 6 -2 4 16 25 39 45 53 49
93 127 94 186 1 63 17 24 18 -42 1 -72 -37 -128 -114 -171 -26 -15 -27 -16 -5
-10 53 14 130 87 154 146 21 48 20 130 0 171 -9 18 -30 47 -48 66 l-31 34 30
-22 c17 -11 46 -44 65 -72 33 -49 35 -57 35 -133 0 -60 -5 -91 -20 -121 -29
-61 -125 -151 -197 -186 l-63 -31 45 6 c131 18 247 126 275 256 5 19 10 29 12
23 3 -7 11 -13 18 -13 7 0 16 -6 19 -12 3 -7 4 13 2 46 -9 112 -73 203 -183
257 -57 29 -57 29 -18 23 63 -10 100 -29 145 -74 142 -142 159 -423 34 -569
-40 -46 -99 -81 -139 -81 -14 0 -25 -4 -25 -10 0 -22 153 1 225 34 176 80 237
275 145 463 -64 130 -153 190 -359 243 -43 11 -43 12 -20 24 62 30 -11 77
-131 84 -85 5 -151 -10 -257 -58 -35 -16 -63 -27 -63 -25 0 9 91 56 146 76 73
26 208 30 271 7 41 -15 42 -15 32 4 -6 11 -32 34 -57 51 -26 18 -61 47 -79 65
-35 36 -58 40 -91 16 -34 -23 -12 -44 47 -44 25 0 52 -4 60 -9 9 -6 -9 -8 -50
-4 -88 7 -92 8 -87 42 l4 29 -60 -46 c-100 -76 -147 -124 -188 -187 -21 -33
-38 -56 -38 -52 0 19 54 111 94 161 25 30 42 57 38 61 -3 3 0 3 9 0 9 -3 28 8
49 30 19 19 32 35 29 35 -3 0 -29 -12 -57 -26z"/>
<path d="M1255 757 c113 -246 -26 -563 -295 -674 -65 -27 -55 -29 32 -7 209
53 346 187 380 371 20 108 -28 256 -107 333 l-36 35 26 -58z"/>
<path d="M811 584 c0 -11 3 -14 6 -6 3 7 2 16 -1 19 -3 4 -6 -2 -5 -13z"/>
<path d="M711 407 l-34 -42 41 40 c44 41 47 45 35 45 -5 0 -23 -19 -42 -43z"/>
</g>
</svg>
