<?xml version="1.0" encoding="UTF-8"?>
<svg width="100pt" height="100pt" version="1.1" viewBox="0 0 100 100" xmlns="http://www.w3.org/2000/svg">
 <path d="m94.32 49.48c0-2.1875-1.7773-3.9648-3.9648-3.9648s-3.9648 1.7773-3.9648 3.9648c0 0.019531 0.007813 0.042969 0.007813 0.0625l-3.5117 1.2969c-0.69141-0.59766-1.582-0.96875-2.5664-0.96875-0.71094 0-1.3672 0.20312-1.9414 0.52734l-38.551-29.398c0.15234-0.41797 0.24609-0.86328 0.24609-1.3359 0-2.1875-1.7773-3.9648-3.9648-3.9648s-3.9648 1.7773-3.9648 3.9648c0 2.1797 1.7656 3.9492 3.9414 3.9609l5.0742 17.656c-0.070312 0.046875-0.12891 0.10938-0.19531 0.16016l-27.414-18.426c0.027344-0.19531 0.058594-0.39062 0.058594-0.59375 0-2.1875-1.7773-3.9648-3.9648-3.9648s-3.9648 1.7773-3.9648 3.9648 1.7773 3.9648 3.9648 3.9648c1.1094 0 2.1094-0.46094 2.8281-1.1953l27.133 18.234c-0.035157 0.11328-0.082031 0.22266-0.10547 0.33984l-16.363-1.3086c-0.48828-1.6367-1.9883-2.8359-3.7812-2.8359-2.1875 0-3.9648 1.7773-3.9648 3.9648s1.7773 3.9648 3.9648 3.9648c1.7344 0 3.1953-1.125 3.7305-2.6797l16.699 1.3359c0.097656 0.20703 0.20312 0.40625 0.32812 0.59375l-20.359 28.785c-0.43359-0.16016-0.89453-0.26172-1.3828-0.26172-2.1875 0-3.9648 1.7773-3.9648 3.9648s1.7773 3.9648 3.9648 3.9648c2.0703 0 3.7578-1.6055 3.9297-3.6328l55.41-22.82c0.69922 0.61328 1.6055 1 2.6055 1l5.3125 11.289c-0.61328 0.69922-1 1.6016-1 2.6055 0 2.1875 1.7773 3.9648 3.9648 3.9648s3.9648-1.7773 3.9648-3.9648c0-1.5195-0.86719-2.8242-2.1289-3.4922l1.5898-15.141c1.3555-0.63281 2.3008-1.9961 2.3008-3.582zm-84.676-25.5c-0.85547 0-1.5547-0.69922-1.5547-1.5586 0-0.85547 0.69922-1.5547 1.5547-1.5547 0.85938 0 1.5586 0.69922 1.5586 1.5547-0.003906 0.86328-0.69922 1.5586-1.5586 1.5586zm80.711 23.941c0.85938 0 1.5586 0.69922 1.5586 1.5586 0 0.85547-0.69922 1.5547-1.5586 1.5547-0.85547 0-1.5547-0.69922-1.5547-1.5547 0-0.85938 0.69531-1.5586 1.5547-1.5586zm-0.78516 5.4414-1.5117 14.418c-0.11719 0.015625-0.23438 0.027344-0.35156 0.054688l-5.0781-10.797c1-0.72266 1.6562-1.8867 1.6562-3.2109 0-0.3125-0.046875-0.60938-0.11328-0.90234l3.0078-1.1094c0.57031 0.78516 1.4102 1.3477 2.3906 1.5469zm-7.6953 0.46875c0 0.85938-0.69922 1.5586-1.5586 1.5586s-1.5586-0.69922-1.5586-1.5586c0-0.85547 0.69922-1.5547 1.5586-1.5547s1.5586 0.69922 1.5586 1.5547zm-60.223 23.234 20.371-28.789c0.42578 0.15625 0.87891 0.25391 1.3555 0.25391 1.6484 0 3.0625-1.0117 3.6602-2.4453l29.398 8.5703c0.003906 0.019531 0.011719 0.035156 0.015625 0.054688l-54.703 22.527c-0.035156-0.054687-0.058594-0.11719-0.097656-0.17188zm55.051-24.844-29.48-8.5938c-0.41797-1.7031-1.9297-2.9727-3.7461-3.0156l-5.0781-17.672 38.332 29.234c-0.007813 0.015625-0.019531 0.03125-0.027344 0.046875zm-34.879-7.6562c0-0.85938 0.69531-1.5547 1.5547-1.5547s1.5586 0.69922 1.5586 1.5547c0 0.85547-0.69922 1.5547-1.5586 1.5547-0.85547 0-1.5547-0.69531-1.5547-1.5547zm-7.2695-24.902c0-0.85547 0.69922-1.5547 1.5547-1.5547 0.85938 0 1.5586 0.69922 1.5586 1.5547 0 0.85547-0.69922 1.5547-1.5586 1.5547-0.85547 0.003906-1.5547-0.69531-1.5547-1.5547zm-15.199 25.484c-0.85938 0-1.5586-0.69922-1.5586-1.5547s0.69922-1.5547 1.5586-1.5547c0.85547 0 1.5547 0.69922 1.5547 1.5547s-0.69922 1.5547-1.5547 1.5547zm-0.98438 35.695c-0.85938 0-1.5586-0.69922-1.5586-1.5547 0-0.85937 0.69922-1.5586 1.5586-1.5586 0.85547 0 1.5547 0.69922 1.5547 1.5586 0.003907 0.85547-0.69531 1.5547-1.5547 1.5547zm70.227-7.5938c-0.85938 0-1.5586-0.69922-1.5586-1.5586 0-0.85547 0.69922-1.5547 1.5586-1.5547s1.5586 0.69922 1.5586 1.5547c-0.003906 0.85938-0.69922 1.5586-1.5586 1.5586z" fill="#e535ab"/>
</svg>
